<?xml version="1.0" encoding="utf-8"?>
<!-- Generator: Adobe Illustrator 24.0.0, SVG Export Plug-In . SVG Version: 6.00 Build 0)  -->
<svg version="1.1" id="Layer_1" xmlns="http://www.w3.org/2000/svg" xmlns:xlink="http://www.w3.org/1999/xlink" x="0px" y="0px"
	 viewBox="0 0 1920.2 1075.6" style="enable-background:new 0 0 1920.2 1075.6;" xml:space="preserve">
<style type="text/css">
	.st0{fill:url(#Path_194_1_);}
	.st1{clip-path:url(#SVGID_2_);}
	.st2{opacity:0.14;fill:none;stroke:#361CC1;stroke-width:128;enable-background:new    ;}
</style>
<g id="Group_112" transform="translate(0.089 0.042)">
	
		<linearGradient id="Path_194_1_" gradientUnits="userSpaceOnUse" x1="510.1454" y1="988.0398" x2="510.1454" y2="987.0398" gradientTransform="matrix(1920.1058 0 0 -1075.6212 -978573.125 1062756.5)">
		<stop  offset="0" style="stop-color:#361CC1"/>
		<stop  offset="1" style="stop-color:#2E82EF"/>
	</linearGradient>
	<path id="Path_194" class="st0" d="M-0.1,1075.6c640.1,0,1280.1,0,1920.2,0c0-2.4-0.1-1075.6-0.1-1075.6L0,0
		C0,358.5-0.1,717.1-0.1,1075.6z"/>
	<g>
		<defs>
			<path id="SVGID_1_" d="M0,607.5c0,0,95.3,204.2,401.2,161.1c305.9-43,419.7-32.1,544.2,96.9s344,107.5,572.9,67.1
				s360.2,68.2,401.8,143c0-2.4-0.1-1075.6-0.1-1075.6L0,0L0,607.5z"/>
		</defs>
		<clipPath id="SVGID_2_">
			<use xlink:href="#SVGID_1_"  style="overflow:visible;"/>
		</clipPath>
		<g id="Mask_Group_6" class="st1">
			<path id="Path_4" class="st2" d="M25.6,687.7c0,0,174.2-392,817.4-255s869.4,77.5,1056.2-464"/>
		</g>
	</g>
</g>
</svg>
